<?xml version="1.0" encoding="utf-8"?>
<!-- Generator: Adobe Illustrator 25.4.1, SVG Export Plug-In . SVG Version: 6.00 Build 0)  -->
<svg version="1.1" id="Capa_1" xmlns="http://www.w3.org/2000/svg" xmlns:xlink="http://www.w3.org/1999/xlink" x="0px" y="0px"
	 viewBox="0 0 1919.03 548.5" style="enable-background:new 0 0 1919.03 548.5;" xml:space="preserve">
<style type="text/css">
	.st0{fill:#183B8E;}
	.st1{fill:#FFFFFF;}
	.st2{fill-rule:evenodd;clip-rule:evenodd;fill:#FFFFFF;}
</style>
<g>
	<rect x="-46.47" y="-13.28" class="st0" width="2011.97" height="575.07"/>
</g>
<g>
	<path class="st1" d="M542.82,222.64h-25.26l-26.04-50.23h-0.44c0.62,7.9,0.93,13.93,0.93,18.09v32.14h-17.07v-71.3h25.17
		l25.95,49.55h0.29c-0.46-7.19-0.68-12.96-0.68-17.31v-32.24h17.17v71.3H542.82z"/>
	<path class="st1" d="M596.46,222.64l-2.39-6.88h-1.12c-1.59,2.54-3.81,4.48-6.66,5.83s-6.19,2.02-10.02,2.02
		c-6.08,0-10.81-1.76-14.19-5.29s-5.07-8.51-5.07-14.95v-35.99h19.07v30.19c0,3.61,0.51,6.34,1.54,8.19
		c1.02,1.85,2.71,2.78,5.05,2.78c3.28,0,5.62-1.29,7.02-3.88c1.4-2.58,2.1-6.95,2.1-13.09v-24.19h19.07v55.26H596.46z"/>
	<path class="st1" d="M650.7,223.62c-9.2,0-16.35-2.45-21.43-7.34c-5.09-4.89-7.63-11.86-7.63-20.9c0-9.33,2.36-16.49,7.07-21.48
		c4.71-4.99,11.44-7.49,20.19-7.49c8.32,0,14.75,2.17,19.29,6.51s6.8,10.59,6.8,18.75v8.49H640.9c0.13,3.09,1.26,5.51,3.39,7.27
		c2.13,1.76,5.03,2.63,8.71,2.63c3.35,0,6.43-0.32,9.24-0.95c2.81-0.63,5.86-1.71,9.14-3.24v13.7c-2.99,1.53-6.08,2.58-9.27,3.17
		C658.92,223.32,655.12,223.62,650.7,223.62z M649.57,179.38c-2.24,0-4.12,0.71-5.63,2.12c-1.51,1.41-2.4,3.63-2.66,6.66h16.39
		c-0.07-2.67-0.82-4.8-2.27-6.39C653.96,180.18,652.01,179.38,649.57,179.38z"/>
	<path class="st1" d="M728.44,205.67c0,5.92-2.02,10.39-6.05,13.41c-4.03,3.02-9.82,4.54-17.36,4.54c-4.1,0-7.66-0.22-10.68-0.66
		s-6.11-1.24-9.27-2.41v-15.27c2.96,1.3,6.2,2.37,9.73,3.22c3.53,0.85,6.67,1.27,9.44,1.27c4.13,0,6.19-0.94,6.19-2.83
		c0-0.98-0.58-1.84-1.73-2.61c-1.15-0.76-4.51-2.25-10.07-4.46c-5.07-2.08-8.62-4.45-10.63-7.1c-2.02-2.65-3.02-6.01-3.02-10.07
		c0-5.14,1.98-9.14,5.95-12c3.97-2.86,9.57-4.29,16.83-4.29c3.64,0,7.06,0.4,10.27,1.2c3.2,0.8,6.53,1.96,9.97,3.49l-5.17,12.29
		c-2.54-1.14-5.22-2.1-8.05-2.9c-2.83-0.8-5.14-1.19-6.93-1.19c-3.12,0-4.68,0.76-4.68,2.29c0,0.94,0.54,1.75,1.63,2.41
		c1.09,0.67,4.23,2.02,9.44,4.07c3.87,1.59,6.75,3.15,8.66,4.68c1.9,1.53,3.3,3.32,4.19,5.39
		C727.99,200.2,728.44,202.71,728.44,205.67z"/>
	<path class="st1" d="M766.09,208.55c2.57,0,5.64-0.63,9.22-1.9v13.9c-2.57,1.11-5.02,1.89-7.34,2.37
		c-2.33,0.47-5.05,0.71-8.17,0.71c-6.41,0-11.02-1.57-13.85-4.71c-2.83-3.14-4.24-7.96-4.24-14.46v-22.78h-6.68v-7.75l8.49-6
		l4.93-11.61h12.49v11.07h13.56v14.29h-13.56v21.51C760.92,206.76,762.64,208.55,766.09,208.55z"/>
	<path class="st1" d="M818.32,166.41c1.66,0,3.23,0.13,4.73,0.39l1.07,0.2l-1.71,18c-1.56-0.39-3.72-0.59-6.49-0.59
		c-4.16,0-7.19,0.95-9.07,2.85c-1.89,1.9-2.83,4.64-2.83,8.22v27.17h-19.07v-55.26h14.19l2.98,8.83h0.93
		c1.59-2.93,3.81-5.29,6.66-7.1C812.56,167.31,815.43,166.41,818.32,166.41z"/>
	<path class="st1" d="M884.6,194.89c0,9.04-2.43,16.09-7.29,21.14c-4.86,5.06-11.66,7.58-20.41,7.58c-8.39,0-15.06-2.58-20.02-7.75
		s-7.44-12.16-7.44-20.97c0-9.01,2.43-16,7.29-21c4.86-4.99,11.68-7.49,20.46-7.49c5.43,0,10.23,1.15,14.39,3.46
		c4.16,2.31,7.37,5.62,9.63,9.92C883.47,184.11,884.6,189.14,884.6,194.89z M848.8,194.89c0,4.75,0.63,8.36,1.9,10.85
		s3.4,3.73,6.39,3.73c2.96,0,5.05-1.24,6.27-3.73c1.22-2.49,1.83-6.1,1.83-10.85c0-4.71-0.62-8.27-1.85-10.68
		c-1.24-2.41-3.35-3.61-6.34-3.61c-2.93,0-5.02,1.19-6.29,3.58C849.44,186.58,848.8,190.14,848.8,194.89z"/>
	<path class="st1" d="M938.15,205.67c0,5.92-2.02,10.39-6.05,13.41c-4.03,3.02-9.82,4.54-17.36,4.54c-4.1,0-7.66-0.22-10.68-0.66
		s-6.11-1.24-9.27-2.41v-15.27c2.96,1.3,6.2,2.37,9.73,3.22c3.53,0.85,6.67,1.27,9.44,1.27c4.13,0,6.19-0.94,6.19-2.83
		c0-0.98-0.58-1.84-1.73-2.61c-1.15-0.76-4.51-2.25-10.07-4.46c-5.07-2.08-8.62-4.45-10.63-7.1c-2.02-2.65-3.02-6.01-3.02-10.07
		c0-5.14,1.98-9.14,5.95-12c3.97-2.86,9.57-4.29,16.83-4.29c3.64,0,7.06,0.4,10.27,1.2c3.2,0.8,6.53,1.96,9.97,3.49l-5.17,12.29
		c-2.54-1.14-5.22-2.1-8.05-2.9c-2.83-0.8-5.14-1.19-6.93-1.19c-3.12,0-4.68,0.76-4.68,2.29c0,0.94,0.54,1.75,1.63,2.41
		c1.09,0.67,4.23,2.02,9.44,4.07c3.87,1.59,6.75,3.15,8.66,4.68c1.9,1.53,3.3,3.32,4.19,5.39
		C937.7,200.2,938.15,202.71,938.15,205.67z"/>
</g>
<g>
	<path class="st1" d="M521.55,296.38c0,4.42-1.12,8.35-3.36,11.78s-5.48,6.1-9.71,8s-9.19,2.85-14.88,2.85
		c-4.75,0-8.73-0.33-11.95-1s-6.57-1.83-10.05-3.49v-17.17c3.67,1.89,7.49,3.36,11.46,4.41c3.97,1.06,7.61,1.58,10.92,1.58
		c2.86,0,4.96-0.5,6.29-1.49c1.33-0.99,2-2.27,2-3.83c0-0.98-0.27-1.83-0.8-2.56c-0.54-0.73-1.4-1.47-2.58-2.22
		c-1.19-0.75-4.35-2.28-9.49-4.58c-4.65-2.11-8.14-4.16-10.46-6.15c-2.32-1.98-4.05-4.26-5.17-6.83c-1.12-2.57-1.68-5.61-1.68-9.12
		c0-6.57,2.39-11.69,7.17-15.36s11.35-5.51,19.7-5.51c7.38,0,14.91,1.71,22.58,5.12l-5.9,14.88c-6.67-3.06-12.42-4.58-17.26-4.58
		c-2.5,0-4.32,0.44-5.46,1.32c-1.14,0.88-1.71,1.97-1.71,3.27c0,1.4,0.72,2.65,2.17,3.76c1.45,1.11,5.37,3.12,11.78,6.05
		c6.15,2.76,10.41,5.73,12.8,8.9C520.36,287.57,521.55,291.56,521.55,296.38z"/>
	<path class="st1" d="M558.13,319c-9.2,0-16.35-2.45-21.43-7.34c-5.09-4.89-7.63-11.86-7.63-20.9c0-9.33,2.36-16.49,7.07-21.48
		c4.71-4.99,11.44-7.49,20.19-7.49c8.32,0,14.75,2.17,19.29,6.51s6.8,10.59,6.8,18.75v8.49h-34.09c0.13,3.09,1.26,5.51,3.39,7.27
		c2.13,1.76,5.03,2.63,8.71,2.63c3.35,0,6.43-0.32,9.24-0.95s5.86-1.71,9.14-3.24v13.7c-2.99,1.53-6.08,2.58-9.27,3.17
		C566.36,318.71,562.55,319,558.13,319z M557.01,274.77c-2.24,0-4.12,0.71-5.63,2.12s-2.4,3.63-2.66,6.66h16.39
		c-0.07-2.67-0.82-4.8-2.27-6.39C561.39,275.57,559.45,274.77,557.01,274.77z"/>
	<path class="st1" d="M626.56,261.8c1.66,0,3.23,0.13,4.73,0.39l1.07,0.2l-1.71,18c-1.56-0.39-3.72-0.59-6.49-0.59
		c-4.16,0-7.19,0.95-9.07,2.85c-1.89,1.9-2.83,4.64-2.83,8.22v27.17H593.2v-55.26h14.19l2.98,8.83h0.93
		c1.59-2.93,3.81-5.29,6.66-7.1C620.79,262.7,623.66,261.8,626.56,261.8z"/>
	<path class="st1" d="M654.55,318.03l-21.07-55.26h19.9l9.36,32.68c0.03,0.16,0.1,0.44,0.2,0.83c0.1,0.39,0.2,0.85,0.29,1.39
		c0.1,0.54,0.19,1.11,0.27,1.71s0.12,1.16,0.12,1.68h0.34c0-1.69,0.29-3.53,0.88-5.51l9.8-32.77h19.85l-21.07,55.26L654.55,318.03
		L654.55,318.03z"/>
	<path class="st1" d="M700.69,249.02c0-2.86,0.8-4.99,2.39-6.39s4.16-2.1,7.71-2.1c3.54,0,6.13,0.72,7.75,2.15
		c1.63,1.43,2.44,3.54,2.44,6.34c0,5.59-3.4,8.39-10.19,8.39C704.05,257.41,700.69,254.61,700.69,249.02z M720.24,318.03h-19.07
		v-55.26h19.07V318.03z"/>
	<path class="st1" d="M758.72,319c-9.04,0-15.89-2.44-20.56-7.32s-7-11.88-7-21.02c0-9.17,2.52-16.27,7.56-21.31
		s12.21-7.56,21.51-7.56c6.4,0,12.44,1.4,18.09,4.19l-5.61,14.09c-2.31-1.01-4.44-1.81-6.39-2.41s-3.98-0.9-6.1-0.9
		c-3.09,0-5.48,1.2-7.17,3.61c-1.69,2.41-2.54,5.8-2.54,10.19c0,8.84,3.27,13.27,9.8,13.27c5.59,0,10.96-1.63,16.09-4.88v15.17
		C771.52,317.38,765.62,319,758.72,319z"/>
	<path class="st1" d="M787.01,249.02c0-2.86,0.8-4.99,2.39-6.39s4.16-2.1,7.71-2.1c3.54,0,6.13,0.72,7.75,2.15
		c1.63,1.43,2.44,3.54,2.44,6.34c0,5.59-3.4,8.39-10.19,8.39C790.38,257.41,787.01,254.61,787.01,249.02z M806.57,318.03H787.5
		v-55.26h19.07V318.03z"/>
	<path class="st1" d="M872.65,290.28c0,9.04-2.43,16.09-7.29,21.14c-4.86,5.06-11.66,7.58-20.41,7.58c-8.39,0-15.06-2.58-20.02-7.75
		s-7.44-12.16-7.44-20.97c0-9.01,2.43-16,7.29-21c4.86-4.99,11.68-7.49,20.46-7.49c5.43,0,10.23,1.15,14.39,3.46
		c4.16,2.31,7.37,5.62,9.63,9.92C871.52,279.49,872.65,284.52,872.65,290.28z M836.85,290.28c0,4.75,0.63,8.36,1.9,10.85
		c1.27,2.49,3.4,3.73,6.39,3.73c2.96,0,5.05-1.24,6.27-3.73c1.22-2.49,1.83-6.1,1.83-10.85c0-4.71-0.62-8.27-1.85-10.68
		c-1.24-2.41-3.35-3.61-6.34-3.61c-2.93,0-5.02,1.19-6.29,3.58C837.49,281.96,836.85,285.53,836.85,290.28z"/>
	<path class="st1" d="M926.2,301.06c0,5.92-2.02,10.39-6.05,13.41c-4.03,3.02-9.82,4.54-17.36,4.54c-4.1,0-7.66-0.22-10.68-0.66
		s-6.11-1.24-9.27-2.41v-15.27c2.96,1.3,6.2,2.37,9.73,3.22c3.53,0.85,6.67,1.27,9.44,1.27c4.13,0,6.19-0.94,6.19-2.83
		c0-0.98-0.58-1.84-1.73-2.61c-1.15-0.76-4.51-2.25-10.07-4.46c-5.07-2.08-8.62-4.45-10.63-7.1c-2.02-2.65-3.02-6.01-3.02-10.07
		c0-5.14,1.98-9.14,5.95-12c3.97-2.86,9.57-4.29,16.83-4.29c3.64,0,7.06,0.4,10.27,1.2c3.2,0.8,6.53,1.96,9.97,3.49l-5.17,12.29
		c-2.54-1.14-5.22-2.1-8.05-2.9s-5.14-1.19-6.93-1.19c-3.12,0-4.68,0.76-4.68,2.29c0,0.94,0.54,1.75,1.63,2.41
		c1.09,0.67,4.23,2.02,9.44,4.07c3.87,1.59,6.75,3.15,8.66,4.68c1.9,1.53,3.3,3.32,4.19,5.39
		C925.75,295.59,926.2,298.1,926.2,301.06z"/>
</g>
<g>
	
		<g id="SvgjsG1106_00000170998236693268156350000013417458792954894485_" transform="matrix(0.7783539315567316,0,0,0.7783539315567316,49.108230342216345,35.32987641065961)">
		<g id="SvgjsG1107_00000008840109654209292910000016361870814538469822_">
			<g xmlns:sketch="http://www.bohemiancoding.com/sketch/ns">
				<path sketch:type="MSShapeGroup" class="st2" d="M1401.18,279.89c-5.02-6.91-11.83-11.38-14.66-13.04
					c-0.08-0.04-0.15-0.08-0.22-0.1c-0.59-0.19-1.26,0.17-1.39,0.82c-1.4,7.13-2.09,14.66-0.53,21.81
					c1.63,7.46,5.91,13.45,12.68,16.93c-3.7-5.54-6.19-11.28-7.82-17.73c-0.19-0.77,0.6-0.55,0.83-0.06
					c2.45,5.27,5.36,9.85,9.22,14.18c0.28,0.32,0.59,0.63,0.89,0.92c-1.55-5.13-2.74-13,0.26-21.78
					C1400.65,281.19,1400.91,280.53,1401.18,279.89L1401.18,279.89z M1410.6,306.98c5.92-1.75,11.5-5.23,15.86-9.58
					c6.74-6.76,10.67-15.79,12.61-25.06c1.32-6.32,1.82-12.86,1.49-19.29c-0.04-0.66-0.48-1.16-1.03-1.34
					c-0.32-0.1-0.67-0.1-1.01,0.04c-45.92,18.5-38.28,46.41-34.87,54.49c0.44-0.37,0.9-0.81,1.43-1.28
					c1.52-1.45,2.98-2.98,4.37-4.55c10.24-11.52,18.11-24.93,25.57-38.37c0.12-0.21,0.35-0.27,0.54-0.17
					c0.18,0.1,0.26,0.32,0.17,0.51c-2.71,6.17-6.64,16.2-11.69,24.97C1417.9,297.99,1410.76,306.93,1410.6,306.98L1410.6,306.98z"/>
			</g>
		</g>
	</g>
	<path class="st1" d="M1106.06,252.88c-0.9-19.73,13.24-37.53,32.45-41.75c19.68-4.52,40.14,5.87,48.26,24.34
		c7.68,16.98,2.95,37.87-11.35,49.82c-10.89,9.36-26.36,12.5-40.01,8.13c-0.32-0.12-1.05-0.35-1.36-0.46
		c-0.27-0.09-1.07-0.4-1.35-0.5l-0.89-0.37c-1.45-0.6-2.92-1.35-4.29-2.11c-2.48-1.4-4.83-3.1-6.97-4.97
		c-0.68-0.6-1.43-1.31-2.07-1.97c-0.22-0.22-0.77-0.81-0.98-1.03s-0.73-0.83-0.94-1.07c-0.21-0.23-0.71-0.86-0.9-1.09
		c-0.19-0.24-0.67-0.87-0.86-1.12c-0.18-0.24-0.66-0.91-0.82-1.16c-0.18-0.26-0.6-0.91-0.78-1.18c-0.27-0.45-0.72-1.16-0.98-1.62
		c-0.35-0.58-0.81-1.46-1.12-2.07c-0.14-0.28-0.46-0.98-0.6-1.27l0.48,0.81c0.26,0.45,0.71,1.16,0.98,1.59
		c0.18,0.27,0.6,0.91,0.78,1.17c0.39,0.54,0.96,1.35,1.39,1.88c0.31,0.41,0.85,1.04,1.17,1.45c0.21,0.23,0.72,0.82,0.92,1.04
		c0.19,0.21,0.74,0.8,0.95,1.01c0.22,0.23,0.78,0.76,0.99,0.98c0.49,0.45,1.21,1.12,1.72,1.55c2.32,2,4.89,3.75,7.6,5.19
		c10.2,5.48,22.83,6.23,33.5,2.09c18.56-7.01,29.31-27.14,24.62-46.47c-4.53-19.36-23.17-32.5-42.94-30.38
		C1122.38,215.38,1106.75,232.6,1106.06,252.88L1106.06,252.88z"/>
	<g>
		<path class="st1" d="M1288.24,263.71c0.42-0.11,0.86,0.05,1.12,0.39c0.31,0.42,0.68,0.83,1.09,1.22c1.73,1.63,3.95,2.61,6.24,2.74
			c3.65,0.21,6.1-1.29,6.25-3.83c0.2-3.42-3.54-5.05-7.49-6.78c-4.05-1.76-8.23-3.59-8-7.59c0.11-1.95,1.22-3.69,3.11-4.91
			c1.86-1.2,4.34-1.77,6.98-1.62c2.45,0.14,4.75,1.21,6.24,2.86c0.42,0.47,0.3,1.19-0.24,1.51l-0.05,0.03
			c-0.42,0.25-0.97,0.18-1.3-0.18c-1.1-1.2-2.8-1.95-4.7-2.06c-3.23-0.19-5.96,1.34-6.08,3.41c-0.15,2.58,3.14,4.01,6.62,5.53
			c4.29,1.87,9.15,3.99,8.87,8.83c-0.25,4.22-4.77,7.27-10.3,6.94c-3.85-0.22-7.11-2.38-8.94-4.97
			C1287.26,264.68,1287.55,263.89,1288.24,263.71L1288.24,263.71z"/>
		<path class="st1" d="M1439.63,263.71c0.42-0.11,0.86,0.05,1.12,0.39c0.31,0.42,0.68,0.83,1.09,1.22c1.73,1.63,3.95,2.6,6.24,2.74
			c3.65,0.21,6.1-1.29,6.25-3.83c0.2-3.42-3.54-5.05-7.49-6.77c-4.05-1.76-8.23-3.59-8-7.58c0.11-1.95,1.22-3.69,3.11-4.9
			c1.86-1.2,4.34-1.77,6.98-1.62c2.45,0.14,4.75,1.21,6.24,2.86c0.42,0.47,0.3,1.19-0.24,1.51l-0.05,0.03
			c-0.42,0.25-0.97,0.18-1.3-0.18c-1.1-1.19-2.8-1.95-4.7-2.06c-3.23-0.19-5.96,1.34-6.08,3.41c-0.15,2.57,3.14,4.01,6.62,5.53
			c4.29,1.87,9.15,3.99,8.87,8.83c-0.25,4.21-4.77,7.26-10.3,6.94c-3.85-0.22-7.11-2.38-8.94-4.97
			C1438.65,264.68,1438.94,263.89,1439.63,263.71L1439.63,263.71z"/>
		<path class="st1" d="M1218.87,243.84h-17.59c-0.53,0-0.96,0.43-0.96,0.96v21.82c0,1.78,1.33,3.13,3.1,3.13h15.45
			c0.53,0,0.96-0.43,0.96-0.96v-0.27c0-0.53-0.43-0.96-0.96-0.96h-14.61v-9.62c0-0.03,0.03-0.06,0.06-0.06h12.96
			c0.53,0,0.96-0.43,0.96-0.96v-0.27c0-0.53-0.43-0.96-0.96-0.96h-12.96c-0.03,0-0.06-0.03-0.06-0.06v-9.62h14.61
			c0.53,0,0.96-0.43,0.96-0.96v-0.27C1219.82,244.27,1219.39,243.84,1218.87,243.84z"/>
		<path class="st1" d="M1250.83,262.09c-0.27-0.27-0.73-0.23-0.94,0.1c-0.17,0.26-0.32,0.48-0.44,0.64c-1.44,1.96-2.99,3-3.46,3.31
			c-0.16,0.1-0.43,0.27-0.75,0.44c-1.05,0.57-2.95,1.39-5.39,1.39c-3.47,0-6.43-1.06-8.55-3.07c-2.11-2-3.23-4.79-3.23-8.06
			c0-3.28,1.07-6.08,3.08-8.1c3.03-3.04,6.88-3.12,8.03-3.09c3.73,0.09,6.79,2.05,8.56,4.26c0.48,0.6,0.83,1.16,1.07,1.61
			c0.1,0.19,0.33,0.28,0.53,0.2l0,0c0.18-0.07,0.3-0.18,0.32-0.2c0.28-0.28,0.36-0.69,0.22-1.05c-1.76-4.3-6.24-7.08-11.41-7.08
			c-4.18,0-7.77,1.29-10.36,3.72c-2.6,2.44-3.98,5.81-3.98,9.74c0,3.91,1.49,7.26,4.32,9.69c2.81,2.42,6.7,3.69,11.23,3.69
			c2.58,0,4.98-0.64,6.93-1.86c1.96-1.22,3.48-3.02,4.42-5.21C1251.19,262.79,1251.11,262.38,1250.83,262.09L1250.83,262.09z"/>
		<path class="st1" d="M1268.94,243.38c-8.39,0-14.03,5.39-14.03,13.42c0,8.03,5.64,13.42,14.03,13.42s14.03-5.39,14.03-13.42
			C1282.97,248.77,1277.33,243.38,1268.94,243.38z M1268.94,268.03c-2.96,0-5.49-1.06-7.3-3.07c-1.83-2.02-2.79-4.85-2.79-8.17
			c0-6.72,4.06-11.23,10.1-11.23c6.04,0,10.1,4.51,10.1,11.23c0,3.32-0.97,6.14-2.79,8.17
			C1274.43,266.97,1271.9,268.03,1268.94,268.03z"/>
		<path class="st1" d="M1325.5,243.38c-8.39,0-14.03,5.39-14.03,13.42c0,8.03,5.64,13.42,14.03,13.42s14.03-5.39,14.03-13.42
			C1339.54,248.77,1333.9,243.38,1325.5,243.38z M1325.5,268.03c-2.97,0-5.49-1.06-7.3-3.07c-1.83-2.02-2.79-4.84-2.79-8.17
			c0-6.72,4.06-11.23,10.1-11.23s10.1,4.51,10.1,11.23c0,3.32-0.97,6.14-2.79,8.17C1331,266.97,1328.47,268.03,1325.5,268.03z"/>
		<path class="st1" d="M1364.16,267.56h-14.77V244.8c0-0.53-0.43-0.96-0.96-0.96h-2.02c-0.53,0-0.96,0.43-0.96,0.96v21.82
			c0,1.78,1.33,3.13,3.1,3.13h15.61c0.53,0,0.96-0.43,0.96-0.96v-0.27C1365.11,267.99,1364.69,267.56,1364.16,267.56z"/>
		<path class="st1" d="M1372.78,244.8c0-0.53-0.43-0.96-0.96-0.96h-2.02c-0.53,0-0.96,0.43-0.96,0.96v19.11
			c0,2.3,1.21,4.56,3.09,5.75c0.1,0.06,0.21,0.09,0.32,0.09c0.16,0,0.32-0.07,0.43-0.18c0.11-0.12,0.17-0.28,0.16-0.44
			c-0.07-1.55-0.07-3.17-0.07-5.22L1372.78,244.8L1372.78,244.8z"/>
		<path class="st1" d="M1389.06,243.84h-9.34c-0.53,0-0.96,0.43-0.96,0.96v21.82c0,1.78,1.33,3.13,3.1,3.13h7.2
			c8.72,0,14.58-5.21,14.58-12.95C1403.64,249.05,1397.78,243.84,1389.06,243.84z M1389.06,267.6h-6.36v-21.55
			c0-0.03,0.03-0.06,0.06-0.06h6.3c6.47,0,10.64,4.23,10.64,10.77C1399.71,263.34,1395.53,267.6,1389.06,267.6z"/>
		<path class="st1" d="M1421.52,243.38c-8.39,0-14.03,5.39-14.03,13.42c0,8.03,5.64,13.42,14.03,13.42s14.03-5.39,14.03-13.42
			C1435.55,248.77,1429.92,243.38,1421.52,243.38z M1421.52,268.03c-2.97,0-5.49-1.06-7.3-3.07c-1.83-2.02-2.79-4.85-2.79-8.17
			c0-6.72,4.06-11.23,10.1-11.23c6.04,0,10.1,4.51,10.1,11.23c0,3.32-0.97,6.14-2.79,8.17
			C1427.01,266.97,1424.49,268.03,1421.52,268.03z"/>
		<path class="st1" d="M1330.54,235.27c-0.34-0.15-0.9,0.36-1.07,0.54c-0.73,0.75-2.68,2.38-5.8,4.98
			c-0.39,0.32-0.17,0.95,0.33,0.96c0.72,0.02,1.44,0.03,2.16,0.05c0.44,0.1,0.91-0.11,1.14-0.49c0.01-0.02,0.03-0.05,0.05-0.07
			c0.87-1,3.7-4.31,3.54-5.56C1330.88,235.54,1330.77,235.37,1330.54,235.27z"/>
	</g>
</g>
</svg>
